<svg width="569" height="145" viewBox="0 0 569 145" fill="none" xmlns="http://www.w3.org/2000/svg">
<path d="M170.932 87.1168C172.897 87.1168 173.815 88.1651 173.815 90.1305C173.815 91.3098 173.421 93.2752 172.635 95.8958C172.242 97.2061 171.718 99.1715 171.194 101.661C170.67 104.151 170.146 106.116 169.753 107.426C169.097 109.916 167.001 112.537 163.463 112.537C162.284 112.537 159.663 112.405 155.339 112.012C151.015 111.619 146.56 111.488 141.843 111.488H113.279C110.789 111.488 109.61 110.833 109.61 109.392C109.61 108.737 110.396 107.95 111.838 107.033C113.541 105.985 114.72 104.806 115.638 103.627C116.817 101.923 117.341 97.4681 117.341 90.3926V37.5878C117.341 32.3466 117.079 28.8088 116.686 27.1054C116.293 25.4021 115.506 24.0918 114.196 23.1746C112.755 22.1263 109.741 21.3401 110.265 19.8988C110.396 18.5885 111.445 17.9334 113.541 17.9334H131.23C133.458 17.9334 134.637 18.5885 134.637 19.8988C135.161 21.3401 132.147 22.1263 130.706 23.1746C129.265 24.0918 128.347 25.4021 127.954 27.1054C127.561 28.8088 127.43 32.3466 127.43 37.5878V94.9786C127.43 100.613 128.085 103.758 129.265 104.675C130.706 105.723 133.72 106.247 138.044 106.247C140.533 106.247 143.285 106.116 146.429 105.723C151.802 105.068 155.601 103.758 157.96 101.792C160.319 99.8267 163.201 96.1579 166.608 90.6546C168.18 88.2961 169.622 87.1168 170.932 87.1168ZM229.455 80.8274C229.455 74.0139 228.276 67.7245 225.786 61.9592C223.296 56.0629 219.89 51.87 215.304 49.3804C212.29 47.677 209.276 46.8908 206.394 46.8908C202.856 46.8908 199.449 47.8081 196.304 49.7735C189.36 54.3595 185.822 62.0902 185.822 72.9657C185.822 82.2688 187.919 90.3926 192.243 97.2061C196.567 104.02 202.07 107.426 209.014 107.426C215.435 107.426 220.545 104.675 224.345 99.3026C227.751 94.4545 229.455 88.2961 229.455 80.8274ZM207.704 41.6497C217.793 41.6497 225.786 44.9254 231.42 51.6079C237.055 58.2904 239.937 66.6763 239.937 76.8966C239.937 86.9858 236.924 95.5027 230.765 102.447C224.738 109.392 217.007 112.93 207.704 112.93C197.877 112.93 189.884 109.785 183.988 103.364C178.091 96.944 175.209 88.4271 175.209 77.6827C175.209 67.5935 178.222 59.0766 184.381 52.132C190.539 45.1875 198.27 41.6497 207.704 41.6497ZM282.37 41.6497C287.611 41.6497 289.839 45.1875 289.839 49.2494C289.839 52.7872 288.66 54.4905 286.17 54.4905C284.074 54.4905 280.798 51.7389 278.046 51.7389C274.639 51.7389 271.757 53.7044 269.267 57.6353C267.564 60.6489 266.385 64.3177 265.73 68.6417C265.205 72.9657 264.943 80.0413 264.943 89.9995C264.943 96.944 265.598 101.661 266.909 103.889C267.433 104.806 268.743 105.723 270.709 106.902C272.019 107.557 272.674 108.344 272.674 109.392C272.674 110.833 271.626 111.488 269.66 111.488H250.268C248.303 111.488 247.254 110.833 247.254 109.392C247.254 108.475 247.91 107.557 249.22 106.902C251.185 105.985 252.627 104.806 253.282 103.364C254.461 101.137 255.116 96.682 255.116 89.9995C255.116 81.8757 254.985 63.9247 254.985 64.0557C254.985 57.8973 254.33 54.2285 253.151 52.9182C252.496 52.132 251.054 51.3458 249.089 50.6907C247.123 50.0356 246.206 49.2494 246.206 48.2011C246.206 46.6288 246.861 45.9736 249.482 45.3185C252.365 44.6633 255.247 43.7461 258.13 42.5669C259.309 42.0428 260.226 41.7807 261.143 41.7807C262.847 41.7807 263.764 42.8289 263.764 44.9254V55.5388C263.764 55.8008 263.895 55.9319 264.026 55.9319C264.157 55.9319 264.288 55.8008 264.419 55.4078C265.992 52.263 268.481 49.2494 271.757 46.2357C275.164 43.222 278.701 41.6497 282.37 41.6497ZM311.937 21.6022C311.937 23.0435 310.889 24.7469 308.792 26.8434C306.827 28.8088 305.123 29.857 303.682 29.857C302.372 29.857 300.668 28.8088 298.572 26.7123C296.606 24.6159 295.558 22.9125 295.558 21.6022C295.558 20.4229 296.606 18.7196 298.572 16.6231C300.668 14.5266 302.372 13.4784 303.682 13.4784C305.123 13.4784 306.827 14.5266 308.792 16.6231C310.889 18.5885 311.937 20.2919 311.937 21.6022ZM314.819 107.033C316.13 107.819 316.785 108.606 316.785 109.261C316.785 110.702 315.737 111.488 313.771 111.488H294.248C292.282 111.488 291.234 110.702 291.234 109.261C291.234 108.475 291.889 107.688 293.2 107.033C295.165 105.985 296.344 104.937 296.999 103.889C298.31 101.923 298.965 97.3371 298.965 89.8685V59.9938C298.965 56.1939 298.572 53.8354 297.655 52.7872C296.868 51.87 295.558 51.0838 293.593 50.6907C291.627 50.1666 290.579 49.3804 290.579 48.3322C290.579 46.8908 291.103 46.2357 294.117 45.5806C297.917 44.6633 301.323 43.6151 304.468 42.3048C305.516 41.9117 306.303 41.6497 306.696 41.6497C308.268 41.6497 309.054 42.6979 309.054 44.7944V89.8685C309.054 97.2061 309.709 101.923 311.02 103.889C311.675 105.068 312.985 106.116 314.819 107.033ZM388.445 106.902C390.279 107.557 391.196 108.344 391.196 109.261C391.196 110.702 390.148 111.488 388.182 111.488H380.19C377.569 111.488 375.473 110.702 373.769 109.13C371.804 107.426 367.611 102.054 361.19 93.2752C356.866 87.2479 353.853 83.317 352.149 81.4826C350.446 79.5171 349.136 78.5999 348.219 78.5999C347.563 78.5999 346.515 79.2551 345.074 80.4343L341.274 83.7101C340.881 84.1032 340.75 84.6273 340.75 85.4135V87.903C340.75 96.2889 341.405 101.53 342.846 103.758C343.502 104.937 344.812 105.985 346.646 106.902C348.088 107.688 348.743 108.475 348.743 109.392C348.743 110.833 347.694 111.488 345.467 111.488H325.813C323.585 111.488 322.537 110.833 322.537 109.392C322.537 108.475 323.192 107.557 324.502 106.902C326.73 105.592 328.04 104.544 328.564 103.758C329.874 101.792 330.53 96.944 330.53 89.4754V31.8225C330.53 28.2847 330.005 25.9262 328.957 24.8779C328.302 24.2228 326.992 23.4366 324.764 22.6504C322.93 21.9953 322.013 21.2091 322.013 20.2919C322.013 18.8506 323.192 17.9334 325.55 17.4093C329.612 16.4921 333.15 15.4438 336.033 14.2646C336.819 13.8715 337.605 13.7404 338.26 13.7404C339.964 13.7404 340.75 14.6577 340.75 16.6231V76.1104C340.75 76.5035 340.881 76.6345 341.143 76.6345C341.274 76.6345 341.536 76.5035 341.929 76.1104L357.522 62.3523C361.059 59.0766 361.715 58.4214 363.68 56.1939C365.776 53.9664 366.301 52.6561 366.301 51.4769C366.301 50.1666 365.514 48.9873 364.073 48.0701C362.632 47.1529 361.846 46.2357 361.846 45.3185C361.846 43.8772 363.156 43.091 365.645 43.091H386.217C388.445 43.091 389.493 43.8772 389.493 45.3185C389.493 47.415 386.61 47.8081 384.383 48.7253C382.286 49.6425 380.059 51.0838 378.093 52.263C376.128 53.3113 372.983 55.9319 371.28 57.3732C370.363 58.0283 369.052 59.0766 367.349 60.6489L363.418 64.0557C362.632 64.8419 361.19 66.2832 358.963 68.2486C356.735 70.2141 355.163 71.5244 354.246 72.4416C353.853 72.8346 353.722 73.0967 353.722 73.3588C353.722 73.7519 353.984 74.0139 354.377 74.0139C354.77 74.0139 355.687 73.3588 356.342 73.3588C359.356 73.3588 362.501 77.2896 369.838 87.772C374.686 94.7165 378.486 99.5646 380.976 102.054C383.596 104.544 386.086 106.247 388.445 106.902ZM402.375 68.3796C402.375 69.1658 402.768 69.5589 403.554 69.5589H427.008C435.525 69.5589 439.063 67.5935 439.063 61.173C439.063 57.6353 437.621 54.3595 434.608 51.3458C431.725 48.3322 427.794 46.8908 422.946 46.8908C418.491 46.8908 414.56 48.3322 411.285 51.2148C404.602 56.9801 402.375 63.7936 402.375 68.3796ZM448.628 97.3371C448.628 100.22 445.614 103.758 439.456 107.819C434.346 111.226 428.449 112.93 421.898 112.93C412.988 112.93 405.519 109.785 399.623 103.627C393.727 97.3371 390.844 89.2133 390.844 79.1241C390.844 69.0348 393.989 60.3869 400.147 52.9182C406.305 45.4495 414.298 41.6497 423.994 41.6497C431.463 41.6497 437.753 44.0082 442.732 48.8563C447.58 53.7044 450.069 59.2076 450.069 65.366C450.069 72.1795 447.449 74.8001 439.98 74.8001H402.899C401.982 74.8001 401.457 75.1932 401.457 76.1104C401.457 84.2342 403.161 90.7857 406.568 95.6337C411.154 102.316 417.05 105.723 424.256 105.723C428.58 105.723 432.642 104.675 436.311 102.447C439.456 100.482 442.339 97.4681 443.911 95.8958C446.269 93.5373 448.628 95.1096 448.628 97.3371ZM467.352 68.3796C467.352 69.1658 467.745 69.5589 468.531 69.5589H491.985C500.502 69.5589 504.04 67.5935 504.04 61.173C504.04 57.6353 502.599 54.3595 499.585 51.3458C496.702 48.3322 492.771 46.8908 487.923 46.8908C483.468 46.8908 479.538 48.3322 476.262 51.2148C469.579 56.9801 467.352 63.7936 467.352 68.3796ZM513.605 97.3371C513.605 100.22 510.591 103.758 504.433 107.819C499.323 111.226 493.427 112.93 486.875 112.93C477.965 112.93 470.496 109.785 464.6 103.627C458.704 97.3371 455.821 89.2133 455.821 79.1241C455.821 69.0348 458.966 60.3869 465.124 52.9182C471.283 45.4495 479.275 41.6497 488.972 41.6497C496.44 41.6497 502.73 44.0082 507.709 48.8563C512.557 53.7044 515.046 59.2076 515.046 65.366C515.046 72.1795 512.426 74.8001 504.957 74.8001H467.876C466.959 74.8001 466.435 75.1932 466.435 76.1104C466.435 84.2342 468.138 90.7857 471.545 95.6337C476.131 102.316 482.027 105.723 489.234 105.723C493.558 105.723 497.62 104.675 501.288 102.447C504.433 100.482 507.316 97.4681 508.888 95.8958C511.247 93.5373 513.605 95.1096 513.605 97.3371ZM561.823 98.3854C563.264 98.3854 563.919 99.0405 563.919 100.22C563.919 100.875 563.526 101.923 562.871 103.102C559.595 108.344 553.175 112.93 544.92 112.93C538.762 112.93 534.176 110.571 531.293 105.723C529.328 102.447 528.41 97.3371 528.41 90.6546C528.41 87.2479 528.541 81.3515 528.804 73.0967C529.066 64.7108 529.197 58.0283 529.197 53.1803C529.197 52.263 528.804 51.7389 527.886 51.7389H519.762C518.845 51.7389 518.321 51.3458 518.321 50.4286V46.7598C518.321 46.1047 518.714 45.7116 519.369 45.4495C523.431 44.1392 526.314 42.5669 527.886 40.7325C529.066 39.2912 529.59 38.2429 529.983 36.0154L530.507 34.181C530.9 33.2638 531.555 29.726 531.686 28.6778C531.817 27.7606 532.341 27.3675 533.127 27.3675H537.451C538.369 27.3675 538.762 27.7606 538.762 28.6778V42.6979C538.762 44.6633 539.417 45.3185 541.644 45.3185C544.134 45.3185 546.361 45.3185 548.589 45.1875C549.506 45.1875 551.21 45.0564 553.699 44.9254C556.189 44.6633 557.892 44.5323 558.809 44.5323C561.299 44.5323 562.478 45.1875 562.478 46.6288C562.478 47.1529 562.085 48.2011 562.085 48.5942C561.43 51.7389 560.251 52.3941 556.582 52.3941C554.878 52.3941 549.637 51.87 547.541 51.87C545.575 51.7389 543.217 51.7389 540.334 51.7389C539.286 51.7389 538.762 52.263 538.762 53.4423C538.631 56.456 538.5 64.0557 538.5 76.3724C538.5 87.5099 539.155 94.7165 540.334 97.9923C541.775 102.054 544.789 104.151 549.113 104.151C555.402 104.151 560.382 98.3854 561.823 98.3854Z" fill="white"/>
<path fill-rule="evenodd" clip-rule="evenodd" d="M0 91.7037L19.7818 55.0511L39.5637 18.3984C50.383 24.2377 50.2972 45.3814 39.372 65.6241C38.0199 68.1293 36.5652 70.5033 35.0334 72.7291L0 91.7037Z" fill="white" fill-opacity="0.6"/>
<path fill-rule="evenodd" clip-rule="evenodd" d="M0.000110651 91.7036C8.0548e-05 91.7036 5.04448e-05 91.7036 2.03416e-05 91.7036L0 50.0535L1.67004e-05 8.40332C12.2945 8.40332 22.2613 27.0507 22.2613 50.0535C22.2613 50.1888 22.261 50.324 22.2603 50.459L19.7819 55.0511L0.000110651 91.7036Z" fill="white" fill-opacity="0.4"/>
<path d="M-2.28882e-05 91.7041C-2.28882e-05 103.999 18.6474 113.965 41.6501 113.965C64.6529 113.965 83.3003 103.999 83.3003 91.7041L41.6501 91.7041L-2.28882e-05 91.7041Z" fill="white"/>
<path fill-rule="evenodd" clip-rule="evenodd" d="M0.00015083 91.7041C0.000100552 91.704 5.02754e-05 91.7039 0 91.7038L36.6234 71.868L73.2469 52.0322C79.1021 62.8429 67.4519 80.4876 47.2253 91.4426C47.0631 91.5305 46.9009 91.6176 46.7385 91.7041H41.6502L0.00015083 91.7041Z" fill="white" fill-opacity="0.8"/>
</svg>
