<svg width="351" height="64" viewBox="0 0 351 64" fill="none" xmlns="http://www.w3.org/2000/svg">
<path d="M110.464 47.5947C111.653 47.5947 112.208 48.2286 112.208 49.4172C112.208 50.1304 111.97 51.319 111.494 52.9037C111.257 53.6961 110.94 54.8847 110.623 56.3903C110.306 57.8958 109.989 59.0844 109.751 59.8768C109.355 61.3824 108.087 62.9672 105.948 62.9672C105.235 62.9672 103.65 62.8879 101.035 62.6502C98.42 62.4125 95.7258 62.3333 92.8732 62.3333H75.599C74.0934 62.3333 73.3803 61.9371 73.3803 61.0654C73.3803 60.6692 73.8557 60.1938 74.7273 59.6391C75.7574 59.0052 76.4706 58.292 77.0253 57.5789C77.7384 56.5488 78.0554 53.8546 78.0554 49.5757V17.6421C78.0554 14.4726 77.8969 12.3331 77.6592 11.303C77.4215 10.2729 76.946 9.48047 76.1536 8.92579C75.282 8.29188 73.4595 7.81644 73.7765 6.9448C73.8557 6.15241 74.4896 5.75621 75.7574 5.75621H86.4548C87.8019 5.75621 88.515 6.15241 88.515 6.9448C88.832 7.81644 87.0095 8.29188 86.1378 8.92579C85.2662 9.48047 84.7115 10.2729 84.4738 11.303C84.2361 12.3331 84.1568 14.4726 84.1568 17.6421V52.3491C84.1568 55.7564 84.553 57.6581 85.2662 58.2128C86.1378 58.8467 87.9603 59.1637 90.5752 59.1637C92.0808 59.1637 93.7448 59.0844 95.6466 58.8467C98.8954 58.4505 101.193 57.6581 102.62 56.4695C104.046 55.2809 105.789 53.0622 107.849 49.7342C108.8 48.3079 109.672 47.5947 110.464 47.5947ZM145.856 43.7912C145.856 39.6707 145.143 35.8672 143.637 32.3807C142.132 28.8149 140.071 26.2793 137.298 24.7737C135.476 23.7436 133.653 23.2682 131.91 23.2682C129.77 23.2682 127.71 23.8228 125.808 25.0114C121.609 27.7848 119.469 32.4599 119.469 39.0368C119.469 44.6628 120.737 49.5757 123.352 53.6961C125.967 57.8166 129.295 59.8768 133.495 59.8768C137.377 59.8768 140.468 58.2128 142.766 54.964C144.826 52.0321 145.856 48.3079 145.856 43.7912ZM132.702 20.0986C138.804 20.0986 143.637 22.0796 147.045 26.1208C150.452 30.162 152.195 35.2333 152.195 41.414C152.195 47.5155 150.373 52.666 146.648 56.8657C143.003 61.0654 138.328 63.2049 132.702 63.2049C126.759 63.2049 121.926 61.3031 118.36 57.4204C114.794 53.5377 113.051 48.3871 113.051 41.8894C113.051 35.788 114.873 30.6374 118.598 26.4377C122.322 22.238 126.997 20.0986 132.702 20.0986ZM177.856 20.0986C181.026 20.0986 182.373 22.238 182.373 24.6945C182.373 26.8339 181.66 27.864 180.154 27.864C178.886 27.864 176.905 26.2 175.241 26.2C173.181 26.2 171.438 27.3886 169.932 29.7658C168.902 31.5883 168.189 33.807 167.793 36.4219C167.476 39.0368 167.318 43.3158 167.318 49.338C167.318 53.5377 167.714 56.3903 168.506 57.7374C168.823 58.292 169.615 58.8467 170.804 59.5599C171.596 59.9561 171.993 60.4315 171.993 61.0654C171.993 61.9371 171.359 62.3333 170.17 62.3333H158.443C157.254 62.3333 156.62 61.9371 156.62 61.0654C156.62 60.5107 157.016 59.9561 157.809 59.5599C158.997 59.0052 159.869 58.292 160.265 57.4204C160.978 56.0733 161.375 53.3792 161.375 49.338C161.375 44.4251 161.295 33.5693 161.295 33.6485C161.295 29.9243 160.899 27.7056 160.186 26.9132C159.79 26.4377 158.918 25.9623 157.73 25.5661C156.541 25.1699 155.986 24.6945 155.986 24.0605C155.986 23.1097 156.382 22.7135 157.967 22.3173C159.711 21.9211 161.454 21.3664 163.197 20.6532C163.91 20.3363 164.465 20.1778 165.02 20.1778C166.05 20.1778 166.604 20.8117 166.604 22.0796V28.498C166.604 28.6564 166.684 28.7357 166.763 28.7357C166.842 28.7357 166.921 28.6564 167.001 28.4187C167.951 26.517 169.457 24.6945 171.438 22.872C173.498 21.0494 175.638 20.0986 177.856 20.0986ZM195.737 7.97492C195.737 8.84656 195.103 9.87667 193.835 11.1445C192.646 12.3331 191.616 12.967 190.745 12.967C189.952 12.967 188.922 12.3331 187.654 11.0653C186.466 9.79743 185.832 8.76731 185.832 7.97492C185.832 7.26176 186.466 6.23165 187.654 4.96382C188.922 3.69599 189.952 3.06207 190.745 3.06207C191.616 3.06207 192.646 3.69599 193.835 4.96382C195.103 6.15241 195.737 7.18252 195.737 7.97492ZM197.48 59.6391C198.272 60.1145 198.669 60.59 198.669 60.9862C198.669 61.8578 198.035 62.3333 196.846 62.3333H185.039C183.851 62.3333 183.217 61.8578 183.217 60.9862C183.217 60.5107 183.613 60.0353 184.405 59.6391C185.594 59.0052 186.307 58.3713 186.703 57.7374C187.496 56.5488 187.892 53.7754 187.892 49.2587V31.1921C187.892 28.8942 187.654 27.4678 187.1 26.8339C186.624 26.2793 185.832 25.8038 184.643 25.5661C183.455 25.2491 182.821 24.7737 182.821 24.1398C182.821 23.2682 183.138 22.872 184.96 22.4758C187.258 21.9211 189.318 21.2872 191.22 20.4948C191.854 20.2571 192.329 20.0986 192.567 20.0986C193.518 20.0986 193.993 20.7325 193.993 22.0003V49.2587C193.993 53.6961 194.39 56.5488 195.182 57.7374C195.578 58.4505 196.371 59.0844 197.48 59.6391ZM242.004 59.5599C243.114 59.9561 243.669 60.4315 243.669 60.9862C243.669 61.8578 243.035 62.3333 241.846 62.3333H237.012C235.428 62.3333 234.16 61.8578 233.13 60.9069C231.941 59.8768 229.405 56.628 225.523 51.319C222.908 47.6739 221.085 45.2967 220.055 44.1874C219.025 42.9988 218.233 42.4441 217.678 42.4441C217.282 42.4441 216.648 42.8403 215.776 43.5535L213.478 45.5345C213.241 45.7722 213.161 46.0891 213.161 46.5646V48.0701C213.161 53.1415 213.557 56.311 214.429 57.6581C214.825 58.3713 215.618 59.0052 216.727 59.5599C217.599 60.0353 217.995 60.5107 217.995 61.0654C217.995 61.9371 217.361 62.3333 216.014 62.3333H204.128C202.781 62.3333 202.147 61.9371 202.147 61.0654C202.147 60.5107 202.543 59.9561 203.336 59.5599C204.683 58.7675 205.475 58.1336 205.792 57.6581C206.584 56.4695 206.981 53.5377 206.981 49.021V14.1556C206.981 12.0161 206.664 10.5898 206.03 9.95591C205.634 9.55971 204.841 9.08427 203.494 8.60884C202.385 8.21264 201.83 7.7372 201.83 7.18252C201.83 6.31089 202.543 5.75621 203.969 5.43925C206.426 4.88458 208.565 4.25066 210.309 3.5375C210.784 3.29978 211.26 3.22055 211.656 3.22055C212.686 3.22055 213.161 3.77522 213.161 4.96382V40.9386C213.161 41.1763 213.241 41.2555 213.399 41.2555C213.478 41.2555 213.637 41.1763 213.874 40.9386L223.304 32.6184C225.443 30.6374 225.84 30.2412 227.028 28.8942C228.296 27.5471 228.613 26.7547 228.613 26.0415C228.613 25.2491 228.138 24.536 227.266 23.9813C226.394 23.4266 225.919 22.872 225.919 22.3173C225.919 21.4456 226.711 20.9702 228.217 20.9702H240.657C242.004 20.9702 242.638 21.4456 242.638 22.3173C242.638 23.5851 240.895 23.8228 239.548 24.3775C238.28 24.9322 236.933 25.8038 235.745 26.517C234.556 27.1509 232.654 28.7357 231.624 29.6073C231.069 30.0035 230.277 30.6374 229.247 31.5883L226.87 33.6485C226.394 34.124 225.523 34.9956 224.176 36.1842C222.829 37.3728 221.878 38.1652 221.323 38.7199C221.085 38.9576 221.006 39.1161 221.006 39.2745C221.006 39.5123 221.164 39.6707 221.402 39.6707C221.64 39.6707 222.195 39.2745 222.591 39.2745C224.413 39.2745 226.315 41.6517 230.752 47.9909C233.684 52.1906 235.982 55.1225 237.488 56.628C239.073 58.1336 240.578 59.1637 242.004 59.5599ZM250.429 36.2634C250.429 36.7389 250.666 36.9766 251.142 36.9766H265.326C270.476 36.9766 272.616 35.788 272.616 31.9053C272.616 29.7658 271.744 27.7848 269.922 25.9623C268.178 24.1398 265.801 23.2682 262.869 23.2682C260.175 23.2682 257.798 24.1398 255.817 25.8831C251.776 29.3696 250.429 33.4901 250.429 36.2634ZM278.4 53.7754C278.4 55.5187 276.578 57.6581 272.853 60.1145C269.763 62.1748 266.197 63.2049 262.235 63.2049C256.847 63.2049 252.33 61.3031 248.765 57.5789C245.199 53.7754 243.456 48.8625 243.456 42.7611C243.456 36.6596 245.357 31.4298 249.082 26.9132C252.806 22.3965 257.639 20.0986 263.503 20.0986C268.02 20.0986 271.823 21.5249 274.834 24.4567C277.766 27.3886 279.272 30.7167 279.272 34.4409C279.272 38.5614 277.687 40.1462 273.17 40.1462H250.746C250.191 40.1462 249.874 40.3839 249.874 40.9386C249.874 45.8514 250.904 49.8134 252.964 52.7453C255.738 56.7865 259.303 58.8467 263.662 58.8467C266.277 58.8467 268.733 58.2128 270.952 56.8657C272.853 55.6771 274.597 53.8546 275.548 52.9037C276.974 51.4774 278.4 52.4283 278.4 53.7754ZM289.723 36.2634C289.723 36.7389 289.961 36.9766 290.437 36.9766H304.62C309.771 36.9766 311.91 35.788 311.91 31.9053C311.91 29.7658 311.039 27.7848 309.216 25.9623C307.473 24.1398 305.096 23.2682 302.164 23.2682C299.47 23.2682 297.093 24.1398 295.112 25.8831C291.07 29.3696 289.723 33.4901 289.723 36.2634ZM317.695 53.7754C317.695 55.5187 315.872 57.6581 312.148 60.1145C309.058 62.1748 305.492 63.2049 301.53 63.2049C296.142 63.2049 291.625 61.3031 288.059 57.5789C284.494 53.7754 282.75 48.8625 282.75 42.7611C282.75 36.6596 284.652 31.4298 288.376 26.9132C292.101 22.3965 296.934 20.0986 302.798 20.0986C307.315 20.0986 311.118 21.5249 314.129 24.4567C317.061 27.3886 318.567 30.7167 318.567 34.4409C318.567 38.5614 316.982 40.1462 312.465 40.1462H290.04C289.486 40.1462 289.169 40.3839 289.169 40.9386C289.169 45.8514 290.199 49.8134 292.259 52.7453C295.032 56.7865 298.598 58.8467 302.956 58.8467C305.571 58.8467 308.028 58.2128 310.246 56.8657C312.148 55.6771 313.891 53.8546 314.842 52.9037C316.269 51.4774 317.695 52.4283 317.695 53.7754ZM346.855 54.4093C347.726 54.4093 348.122 54.8055 348.122 55.5187C348.122 55.9148 347.885 56.5488 347.488 57.2619C345.507 60.4315 341.625 63.2049 336.633 63.2049C332.908 63.2049 330.135 61.7786 328.392 58.8467C327.203 56.8657 326.648 53.7754 326.648 49.7342C326.648 47.6739 326.728 44.1082 326.886 39.1161C327.045 34.0447 327.124 30.0035 327.124 27.0717C327.124 26.517 326.886 26.2 326.331 26.2H321.419C320.864 26.2 320.547 25.9623 320.547 25.4076V23.1889C320.547 22.7927 320.785 22.555 321.181 22.3965C323.637 21.6041 325.381 20.6532 326.331 19.5439C327.045 18.6723 327.362 18.0383 327.599 16.6913L327.916 15.5819C328.154 15.0272 328.55 12.8878 328.629 12.2539C328.709 11.6992 329.026 11.4615 329.501 11.4615H332.116C332.671 11.4615 332.908 11.6992 332.908 12.2539V20.7325C332.908 21.9211 333.305 22.3173 334.652 22.3173C336.157 22.3173 337.504 22.3173 338.851 22.238C339.406 22.238 340.436 22.1588 341.942 22.0796C343.447 21.9211 344.477 21.8418 345.032 21.8418C346.538 21.8418 347.251 22.238 347.251 23.1097C347.251 23.4266 347.013 24.0605 347.013 24.2983C346.617 26.2 345.904 26.5962 343.685 26.5962C342.655 26.5962 339.485 26.2793 338.217 26.2793C337.029 26.2 335.602 26.2 333.859 26.2C333.225 26.2 332.908 26.517 332.908 27.2301C332.829 29.0526 332.75 33.6485 332.75 41.0971C332.75 47.8324 333.146 52.1906 333.859 54.1716C334.731 56.628 336.553 57.8958 339.168 57.8958C342.972 57.8958 345.983 54.4093 346.855 54.4093Z" fill="black"/>
<path d="M7.00001 50.3756C14.4351 50.3756 20.4625 39.0987 20.4625 25.1878C20.4625 11.277 14.4351 -3.24998e-07 7.00001 0L7 25.1878L7.00001 50.3756Z" fill="#FACB12"/>
<path d="M7.00027 50.3756C13.5432 53.9069 24.2034 46.8457 30.8104 34.604C37.4174 22.3623 37.4692 9.57575 30.9263 6.04444L18.9633 28.21L7.00027 50.3756Z" fill="#FF4D01"/>
<path d="M7.00006 50.3758C10.541 56.9136 23.3275 56.8429 35.5594 50.2178C47.7914 43.5928 54.8368 32.9223 51.2959 26.3845L29.148 38.3802L7.00006 50.3758Z" fill="#DF26FE"/>
<path d="M6.99987 50.3757C6.99987 57.8108 18.2768 63.8382 32.1877 63.8382C46.0985 63.8382 57.3755 57.8108 57.3755 50.3757L32.1877 50.3757L6.99987 50.3757Z" fill="#3D54FF"/>
</svg>
